<mxfile host="Electron" modified="2024-05-27T09:57:58.836Z" agent="Mozilla/5.0 (Windows NT 10.0; Win64; x64) AppleWebKit/537.36 (KHTML, like Gecko) draw.io/24.0.4 Chrome/120.0.6099.109 Electron/28.1.0 Safari/537.36" etag="Xc6dsSHsted5nfg5aRM9" version="24.0.4" type="device">
  <diagram name="Page-1" id="jiULLYSCaZEBRxu0RAGW">
    <mxGraphModel dx="1418" dy="820" grid="1" gridSize="10" guides="1" tooltips="1" connect="1" arrows="1" fold="1" page="1" pageScale="1" pageWidth="850" pageHeight="1100" math="0" shadow="0">
      <root>
        <mxCell id="0" />
        <mxCell id="1" parent="0" />
        <mxCell id="cBxL_fdfCvN-SQ6gsZ_c-1" value="" style="rounded=0;whiteSpace=wrap;html=1;" vertex="1" parent="1">
          <mxGeometry x="30" y="170" width="120" height="60" as="geometry" />
        </mxCell>
        <mxCell id="cBxL_fdfCvN-SQ6gsZ_c-2" value="" style="rounded=0;whiteSpace=wrap;html=1;" vertex="1" parent="1">
          <mxGeometry x="40" y="180" width="120" height="60" as="geometry" />
        </mxCell>
        <mxCell id="cBxL_fdfCvN-SQ6gsZ_c-31" style="rounded=0;orthogonalLoop=1;jettySize=auto;html=1;entryX=0;entryY=0;entryDx=0;entryDy=0;strokeWidth=2;" edge="1" parent="1" source="cBxL_fdfCvN-SQ6gsZ_c-3" target="cBxL_fdfCvN-SQ6gsZ_c-19">
          <mxGeometry relative="1" as="geometry" />
        </mxCell>
        <mxCell id="cBxL_fdfCvN-SQ6gsZ_c-3" value="&lt;font style=&quot;font-size: 14px;&quot;&gt;Test Suite A&lt;/font&gt;" style="rounded=0;whiteSpace=wrap;html=1;" vertex="1" parent="1">
          <mxGeometry x="50" y="190" width="120" height="60" as="geometry" />
        </mxCell>
        <mxCell id="cBxL_fdfCvN-SQ6gsZ_c-7" value="" style="rounded=0;whiteSpace=wrap;html=1;" vertex="1" parent="1">
          <mxGeometry x="195" y="170" width="120" height="60" as="geometry" />
        </mxCell>
        <mxCell id="cBxL_fdfCvN-SQ6gsZ_c-8" value="" style="rounded=0;whiteSpace=wrap;html=1;" vertex="1" parent="1">
          <mxGeometry x="205" y="180" width="120" height="60" as="geometry" />
        </mxCell>
        <mxCell id="cBxL_fdfCvN-SQ6gsZ_c-32" style="rounded=0;orthogonalLoop=1;jettySize=auto;html=1;entryX=0.5;entryY=0;entryDx=0;entryDy=0;strokeWidth=2;" edge="1" parent="1" source="cBxL_fdfCvN-SQ6gsZ_c-9" target="cBxL_fdfCvN-SQ6gsZ_c-19">
          <mxGeometry relative="1" as="geometry" />
        </mxCell>
        <mxCell id="cBxL_fdfCvN-SQ6gsZ_c-35" style="rounded=0;orthogonalLoop=1;jettySize=auto;html=1;entryX=0;entryY=0;entryDx=0;entryDy=0;strokeWidth=2;" edge="1" parent="1" source="cBxL_fdfCvN-SQ6gsZ_c-9" target="cBxL_fdfCvN-SQ6gsZ_c-20">
          <mxGeometry relative="1" as="geometry" />
        </mxCell>
        <mxCell id="cBxL_fdfCvN-SQ6gsZ_c-9" value="&lt;font style=&quot;font-size: 14px;&quot;&gt;Test Suite B&lt;/font&gt;" style="rounded=0;whiteSpace=wrap;html=1;" vertex="1" parent="1">
          <mxGeometry x="215" y="190" width="120" height="60" as="geometry" />
        </mxCell>
        <mxCell id="cBxL_fdfCvN-SQ6gsZ_c-10" value="" style="rounded=0;whiteSpace=wrap;html=1;" vertex="1" parent="1">
          <mxGeometry x="360" y="170" width="120" height="60" as="geometry" />
        </mxCell>
        <mxCell id="cBxL_fdfCvN-SQ6gsZ_c-11" value="" style="rounded=0;whiteSpace=wrap;html=1;" vertex="1" parent="1">
          <mxGeometry x="370" y="180" width="120" height="60" as="geometry" />
        </mxCell>
        <mxCell id="cBxL_fdfCvN-SQ6gsZ_c-36" style="rounded=0;orthogonalLoop=1;jettySize=auto;html=1;entryX=1;entryY=0;entryDx=0;entryDy=0;strokeWidth=2;" edge="1" parent="1" source="cBxL_fdfCvN-SQ6gsZ_c-12" target="cBxL_fdfCvN-SQ6gsZ_c-20">
          <mxGeometry relative="1" as="geometry" />
        </mxCell>
        <mxCell id="cBxL_fdfCvN-SQ6gsZ_c-37" style="rounded=0;orthogonalLoop=1;jettySize=auto;html=1;entryX=0;entryY=0;entryDx=0;entryDy=0;strokeWidth=2;" edge="1" parent="1" source="cBxL_fdfCvN-SQ6gsZ_c-12" target="cBxL_fdfCvN-SQ6gsZ_c-21">
          <mxGeometry relative="1" as="geometry" />
        </mxCell>
        <mxCell id="cBxL_fdfCvN-SQ6gsZ_c-12" value="&lt;font style=&quot;font-size: 14px;&quot;&gt;Test Suite C&lt;/font&gt;" style="rounded=0;whiteSpace=wrap;html=1;" vertex="1" parent="1">
          <mxGeometry x="380" y="190" width="120" height="60" as="geometry" />
        </mxCell>
        <mxCell id="cBxL_fdfCvN-SQ6gsZ_c-13" value="" style="rounded=0;whiteSpace=wrap;html=1;" vertex="1" parent="1">
          <mxGeometry x="530" y="170" width="120" height="60" as="geometry" />
        </mxCell>
        <mxCell id="cBxL_fdfCvN-SQ6gsZ_c-14" value="" style="rounded=0;whiteSpace=wrap;html=1;" vertex="1" parent="1">
          <mxGeometry x="540" y="180" width="120" height="60" as="geometry" />
        </mxCell>
        <mxCell id="cBxL_fdfCvN-SQ6gsZ_c-33" style="rounded=0;orthogonalLoop=1;jettySize=auto;html=1;entryX=1;entryY=0;entryDx=0;entryDy=0;exitX=0;exitY=1;exitDx=0;exitDy=0;strokeWidth=2;" edge="1" parent="1" source="cBxL_fdfCvN-SQ6gsZ_c-15" target="cBxL_fdfCvN-SQ6gsZ_c-19">
          <mxGeometry relative="1" as="geometry" />
        </mxCell>
        <mxCell id="cBxL_fdfCvN-SQ6gsZ_c-40" style="rounded=0;orthogonalLoop=1;jettySize=auto;html=1;entryX=0;entryY=0;entryDx=0;entryDy=0;strokeWidth=2;" edge="1" parent="1" source="cBxL_fdfCvN-SQ6gsZ_c-15" target="cBxL_fdfCvN-SQ6gsZ_c-22">
          <mxGeometry relative="1" as="geometry" />
        </mxCell>
        <mxCell id="cBxL_fdfCvN-SQ6gsZ_c-15" value="&lt;font style=&quot;font-size: 14px;&quot;&gt;Test Suite D&lt;/font&gt;" style="rounded=0;whiteSpace=wrap;html=1;" vertex="1" parent="1">
          <mxGeometry x="550" y="190" width="120" height="60" as="geometry" />
        </mxCell>
        <mxCell id="cBxL_fdfCvN-SQ6gsZ_c-16" value="" style="rounded=0;whiteSpace=wrap;html=1;" vertex="1" parent="1">
          <mxGeometry x="700" y="170" width="120" height="60" as="geometry" />
        </mxCell>
        <mxCell id="cBxL_fdfCvN-SQ6gsZ_c-17" value="" style="rounded=0;whiteSpace=wrap;html=1;" vertex="1" parent="1">
          <mxGeometry x="710" y="180" width="120" height="60" as="geometry" />
        </mxCell>
        <mxCell id="cBxL_fdfCvN-SQ6gsZ_c-38" style="rounded=0;orthogonalLoop=1;jettySize=auto;html=1;entryX=1;entryY=0;entryDx=0;entryDy=0;strokeWidth=2;" edge="1" parent="1" source="cBxL_fdfCvN-SQ6gsZ_c-18" target="cBxL_fdfCvN-SQ6gsZ_c-21">
          <mxGeometry relative="1" as="geometry" />
        </mxCell>
        <mxCell id="cBxL_fdfCvN-SQ6gsZ_c-18" value="&lt;font style=&quot;font-size: 14px;&quot;&gt;Test Suite N&lt;/font&gt;" style="rounded=0;whiteSpace=wrap;html=1;" vertex="1" parent="1">
          <mxGeometry x="720" y="190" width="120" height="60" as="geometry" />
        </mxCell>
        <mxCell id="cBxL_fdfCvN-SQ6gsZ_c-19" value="&lt;font style=&quot;font-size: 14px;&quot;&gt;Driver 1&lt;/font&gt;" style="ellipse;whiteSpace=wrap;html=1;" vertex="1" parent="1">
          <mxGeometry x="120" y="300" width="120" height="80" as="geometry" />
        </mxCell>
        <mxCell id="cBxL_fdfCvN-SQ6gsZ_c-20" value="&lt;font style=&quot;font-size: 14px;&quot;&gt;Driver 2&lt;/font&gt;" style="ellipse;whiteSpace=wrap;html=1;" vertex="1" parent="1">
          <mxGeometry x="290" y="300" width="120" height="80" as="geometry" />
        </mxCell>
        <mxCell id="cBxL_fdfCvN-SQ6gsZ_c-21" value="&lt;font style=&quot;font-size: 14px;&quot;&gt;Driver 3&lt;/font&gt;" style="ellipse;whiteSpace=wrap;html=1;" vertex="1" parent="1">
          <mxGeometry x="460" y="300" width="120" height="80" as="geometry" />
        </mxCell>
        <mxCell id="cBxL_fdfCvN-SQ6gsZ_c-25" value="" style="rounded=0;whiteSpace=wrap;html=1;" vertex="1" parent="1">
          <mxGeometry x="200" y="440" width="480" height="320" as="geometry" />
        </mxCell>
        <mxCell id="cBxL_fdfCvN-SQ6gsZ_c-22" value="&lt;font style=&quot;font-size: 14px;&quot;&gt;Driver 4&lt;/font&gt;" style="ellipse;whiteSpace=wrap;html=1;" vertex="1" parent="1">
          <mxGeometry x="630" y="300" width="120" height="80" as="geometry" />
        </mxCell>
        <mxCell id="cBxL_fdfCvN-SQ6gsZ_c-26" value="&lt;font style=&quot;font-size: 14px;&quot;&gt;4&lt;/font&gt;" style="rounded=0;whiteSpace=wrap;html=1;" vertex="1" parent="1">
          <mxGeometry x="200" y="720" width="480" height="40" as="geometry" />
        </mxCell>
        <mxCell id="cBxL_fdfCvN-SQ6gsZ_c-27" value="&lt;font style=&quot;font-size: 14px;&quot;&gt;1&lt;/font&gt;" style="rounded=0;whiteSpace=wrap;html=1;" vertex="1" parent="1">
          <mxGeometry x="200" y="460" width="70" height="260" as="geometry" />
        </mxCell>
        <mxCell id="cBxL_fdfCvN-SQ6gsZ_c-28" value="&lt;font style=&quot;font-size: 14px;&quot;&gt;3&lt;/font&gt;" style="rounded=0;whiteSpace=wrap;html=1;" vertex="1" parent="1">
          <mxGeometry x="270" y="590" width="410" height="130" as="geometry" />
        </mxCell>
        <mxCell id="cBxL_fdfCvN-SQ6gsZ_c-29" value="" style="rounded=0;whiteSpace=wrap;html=1;" vertex="1" parent="1">
          <mxGeometry x="200" y="440" width="480" height="20" as="geometry" />
        </mxCell>
        <mxCell id="cBxL_fdfCvN-SQ6gsZ_c-30" value="&lt;font style=&quot;font-size: 14px;&quot;&gt;2&lt;/font&gt;" style="rounded=0;whiteSpace=wrap;html=1;" vertex="1" parent="1">
          <mxGeometry x="270" y="460" width="410" height="130" as="geometry" />
        </mxCell>
        <mxCell id="cBxL_fdfCvN-SQ6gsZ_c-39" style="rounded=0;orthogonalLoop=1;jettySize=auto;html=1;entryX=0.908;entryY=0.175;entryDx=0;entryDy=0;entryPerimeter=0;strokeWidth=2;" edge="1" parent="1" source="cBxL_fdfCvN-SQ6gsZ_c-18" target="cBxL_fdfCvN-SQ6gsZ_c-22">
          <mxGeometry relative="1" as="geometry" />
        </mxCell>
        <mxCell id="cBxL_fdfCvN-SQ6gsZ_c-41" style="rounded=0;orthogonalLoop=1;jettySize=auto;html=1;entryX=0.429;entryY=0.269;entryDx=0;entryDy=0;entryPerimeter=0;strokeWidth=4;" edge="1" parent="1" source="cBxL_fdfCvN-SQ6gsZ_c-19" target="cBxL_fdfCvN-SQ6gsZ_c-27">
          <mxGeometry relative="1" as="geometry" />
        </mxCell>
        <mxCell id="cBxL_fdfCvN-SQ6gsZ_c-42" style="rounded=0;orthogonalLoop=1;jettySize=auto;html=1;entryX=0.439;entryY=0.462;entryDx=0;entryDy=0;entryPerimeter=0;strokeWidth=4;" edge="1" parent="1" source="cBxL_fdfCvN-SQ6gsZ_c-20" target="cBxL_fdfCvN-SQ6gsZ_c-30">
          <mxGeometry relative="1" as="geometry" />
        </mxCell>
        <mxCell id="cBxL_fdfCvN-SQ6gsZ_c-43" style="rounded=0;orthogonalLoop=1;jettySize=auto;html=1;entryX=0.634;entryY=0.5;entryDx=0;entryDy=0;entryPerimeter=0;strokeWidth=4;" edge="1" parent="1" source="cBxL_fdfCvN-SQ6gsZ_c-21" target="cBxL_fdfCvN-SQ6gsZ_c-28">
          <mxGeometry relative="1" as="geometry" />
        </mxCell>
        <mxCell id="cBxL_fdfCvN-SQ6gsZ_c-44" style="rounded=0;orthogonalLoop=1;jettySize=auto;html=1;entryX=0.896;entryY=0.25;entryDx=0;entryDy=0;entryPerimeter=0;strokeWidth=4;" edge="1" parent="1" source="cBxL_fdfCvN-SQ6gsZ_c-22" target="cBxL_fdfCvN-SQ6gsZ_c-26">
          <mxGeometry relative="1" as="geometry" />
        </mxCell>
      </root>
    </mxGraphModel>
  </diagram>
</mxfile>
